<?xml version="1.0" encoding="UTF-8" standalone="no"?>
<!DOCTYPE svg PUBLIC "-//W3C//DTD SVG 1.1//EN" "http://www.w3.org/Graphics/SVG/1.1/DTD/svg11.dtd">
<svg width="100%" height="100%" viewBox="0 0 1024 1024" version="1.1" xmlns="http://www.w3.org/2000/svg" xmlns:xlink="http://www.w3.org/1999/xlink" xml:space="preserve" xmlns:serif="http://www.serif.com/" style="fill-rule:evenodd;clip-rule:evenodd;stroke-linejoin:round;stroke-miterlimit:2;">
    <g transform="matrix(1.201899,0,0,1.201899,-149.167664,-79.862244)">
        <g id="Logo" transform="matrix(0.748137,0,0,0.748137,99.147728,139.364183)">
            <g transform="matrix(0.686777,0,0,0.686777,-74.884244,130.309453)">
                <path d="M669.808,244.338C674.049,247.563 755.584,291.237 766.445,303.532C771.84,309.641 775.795,316.21 778.288,324.521C782.447,338.385 778.87,350.58 773.082,362.065C767.024,374.086 757.111,383.206 745.413,390.519C733.929,397.698 722.011,404.085 710.299,410.817C701.863,415.666 693.359,420.461 684.899,425.287C672.304,432.472 660.073,440.29 647.609,447.708C640.503,451.937 633.177,455.798 626.069,460.025C619.398,463.992 595.097,477.962 588.927,481.026C576.276,487.31 564.595,494.989 550.045,497.568C535.716,500.108 521.465,499.847 507.393,498.798C491.626,497.622 477.263,490.634 463.734,482.275C454.735,476.714 445.217,471.989 436.256,466.372C421.124,456.887 405.325,448.56 389.936,439.528C372.839,429.494 355.936,419.09 338.367,409.802C322.656,401.496 306.758,393.221 292.576,382.401C282.961,375.065 276.283,365.189 272.56,353.422C270.615,347.273 267.923,341.321 268.714,334.678C269.793,325.607 272.485,317.314 277.702,309.449C286.756,295.8 300.427,288.667 313.921,280.93C327.962,272.879 341.752,264.394 355.698,256.177C362.11,252.399 368.652,248.842 375.101,245.125C388.828,237.213 402.49,229.187 416.259,221.35C427.565,214.915 438.813,208.383 450.233,202.134C460.789,196.359 470.691,189.326 481.789,184.544C489.038,181.421 496.666,179.477 504.646,178.796C513.509,178.039 522.242,176.37 531.254,176.604C537.001,176.753 542.369,178.001 547.845,179.201C560.86,182.053 572.707,187.811 584.198,194.254C595.99,200.866 607.258,208.446 619.229,214.693C627.584,219.053 635.692,223.839 643.74,228.64C652.417,233.817 661.597,238.094 669.808,244.338Z" style="fill:rgb(31,106,225);fill-rule:nonzero;"/>
            </g>
            <g transform="matrix(0.686777,0,0,0.686777,-74.884244,130.309453)">
                <path d="M347.287,451.391C357.051,457.258 394.307,479.402 403.226,483.821C412.392,488.362 421.041,493.944 429.952,499.008C445.466,507.825 460.905,516.83 477.069,524.386C488.253,529.614 499.808,534.029 512.719,532.942C519.336,532.385 526.055,532.589 532.703,532.931C549.375,533.789 564.761,529.434 579.366,521.851C594.948,513.76 610.595,505.775 625.93,497.235C643.821,487.271 661.446,476.824 679.11,466.457C693.625,457.938 708.171,449.456 722.446,440.545C738.97,430.23 756.537,421.665 772.542,410.489C774.413,409.182 776.564,408.274 778.429,407.265C780.349,408.339 780.122,409.949 780.125,411.407C780.138,420.905 781.117,430.547 779.794,439.859C778.611,448.185 777.206,456.573 774.661,464.857C770.267,479.161 759.796,488.131 749.753,497.533C745.288,501.713 739.119,504.104 733.646,507.17C721.392,514.034 708.901,520.499 696.904,527.784C692.335,530.559 672.021,542.962 667.648,545.501C652.634,554.216 637.544,562.799 622.518,571.494C608.952,579.345 595.254,586.992 581.969,595.296C575.579,599.289 544.437,610.727 534.982,610.153C529.338,609.81 523.652,610.216 517.99,610.09C499.227,609.673 482.066,604.311 466.268,594.022C458.103,588.705 449.083,584.711 440.829,579.516C432.926,574.543 413.536,564.263 411.286,562.651C406.874,559.49 401.754,557.337 397.025,554.599C383.744,546.909 370.521,539.097 357.36,531.231C340.745,521.301 323.455,512.659 306.766,502.93C293.762,495.349 282.565,485.55 276.559,471.258C273.458,463.878 271.844,456.053 270.285,448.089C267.873,435.769 269.476,423.589 268.705,411.386C268.586,409.507 268.064,407.392 269.958,405.369C274.498,408.217 279.138,410.952 283.593,413.96C292.112,419.711 301.329,424.243 310.161,429.442C322.55,436.735 334.965,443.987 347.287,451.391Z" style="fill:rgb(31,106,225);fill-rule:nonzero;"/>
            </g>
            <g transform="matrix(0.686777,0,0,0.686777,-74.884244,130.309453)">
                <path d="M326.947,549.828C339.696,557.143 392.973,588.504 399.713,592.519C425.749,608.029 452.152,622.866 479.726,635.472C485.477,638.101 491.908,639.356 497.99,641.255C513.216,646.009 528.613,643.165 543.883,643.31C550.387,643.371 557.005,640.41 563.427,638.37C579.496,633.265 593.835,624.352 608.639,616.644C629.178,605.952 648.873,593.652 669.045,582.238C681.648,575.106 693.788,566.961 706.241,559.483C723.388,549.185 741.32,540.197 758.559,530.043C764.64,526.461 770.094,521.763 776.604,518.783C777.35,518.442 778.037,517.888 779.242,518.495C780.753,519.633 780.194,521.612 780.202,523.356C780.246,533.519 780.996,543.762 779.994,553.827C778.775,566.081 776.22,578.058 768.434,588.497C761.32,598.036 752.055,604.38 742.211,610.567C727.395,619.878 712.067,628.296 697.022,637.191C687.071,643.074 677.046,648.888 666.99,654.618C655.815,660.986 645.034,668.042 633.889,674.464C617.711,683.785 601.106,692.39 585.182,702.117C576.246,707.576 567.269,712.797 557.263,715.606C551.833,717.132 545.849,717.644 540.411,718.877C532.516,720.668 524.788,721.443 516.958,720.83C510.683,720.339 504.529,718.423 498.292,717.304C491.463,716.079 484.885,714.162 478.859,710.667C466.564,703.536 454.54,695.893 441.958,689.315C432.129,684.176 422.693,678.375 412.923,673.146C402.19,667.402 392.001,660.648 381.485,654.489C375.222,650.821 368.755,647.504 362.444,643.916C360.405,642.756 332.607,626.509 323.321,621.599C316.554,618.021 309.706,614.28 303.2,610.036C287.541,599.822 275.712,586.889 270.853,568.356C267.859,556.936 268.808,545.314 268.697,533.739C268.658,529.741 268.583,525.737 268.743,521.744C268.899,517.854 270.757,516.864 273.766,518.994C290.562,530.888 309.174,539.63 326.947,549.828Z" style="fill:rgb(31,106,225);fill-rule:nonzero;"/>
            </g>
            <g transform="matrix(0.686777,0,0,0.686777,-74.884244,130.309453)">
                <path d="M481.369,746.362C492.286,752.572 504.048,752.021 515.583,752.586C526.082,753.099 536.633,752.938 547.027,751.678C553.785,750.859 560.739,749.477 566.936,746.32C584.519,737.365 602.24,728.629 619.414,718.935C636.96,709.03 653.791,697.867 671.215,687.737C676.631,684.588 682.019,681.367 687.473,678.274C690.555,676.525 693.828,675.645 697.471,675.796C703.203,676.034 705.987,677.919 706.177,683.664C706.583,695.894 707.141,708.073 700.677,719.499C695.279,729.037 687.921,736.134 678.974,742.155C672.391,746.585 665.356,750.197 658.443,753.928C650.17,758.393 642.254,763.446 633.99,767.92C620.351,775.304 607.032,783.282 593.648,791.13C582.136,797.879 570.991,805.339 558.686,810.577C551.924,813.456 544.903,815.582 537.438,816.767C531.496,817.71 525.614,818.704 519.74,818.126C514.084,817.569 508.469,816.222 502.864,815.007C484.78,811.087 470.706,799.392 454.879,791.084C447.124,787.012 439.361,783.011 431.833,778.515C417.953,770.226 404.046,761.965 389.898,754.148C378.306,747.742 366.399,741.656 357.363,731.868C347.791,721.499 341.054,709.466 342.062,694.499C342.241,691.845 342.08,689.168 342.08,686.502C342.08,677.034 349.016,672.353 357.429,676.916C368.745,683.054 379.41,690.398 390.749,696.489C397.314,700.016 403.552,704.058 410.081,707.632C422.554,714.458 434.625,722.015 446.996,729.033C456.644,734.507 466.474,739.663 476.279,744.854C477.698,745.605 479.432,745.759 481.369,746.362Z" style="fill:rgb(31,106,225);fill-rule:nonzero;"/>
            </g>
        </g>
        <g transform="matrix(1,0,0,1,-13,-24)">
            <g transform="matrix(150,0,0,150,941.25,497)">
            </g>
            <text x="480px" y="497px" style="font-family:'Futura-Bold', 'Futura', sans-serif;font-weight:700;font-size:150px;fill:rgb(30,30,30);">Capia</text>
        </g>
        <g transform="matrix(1,0,0,1,-11.2,154)">
            <g transform="matrix(150,0,0,150,699.9,497)">
            </g>
            <text x="480px" y="497px" style="font-family:'Futura-Bold', 'Futura', sans-serif;font-weight:700;font-size:150px;fill:rgb(30,30,30);">3D</text>
        </g>
    </g>
</svg>
