<?xml version="1.0" encoding="UTF-8" standalone="no"?>
<!-- Created with Inkscape (http://www.inkscape.org/) -->

<svg
   width="59.992985mm"
   height="47.695286mm"
   viewBox="0 0 59.992985 47.695286"
   version="1.1"
   id="svg1"
   xml:space="preserve"
   xmlns="http://www.w3.org/2000/svg"
   xmlns:svg="http://www.w3.org/2000/svg"><defs
     id="defs1" /><g
     id="layer1"
     transform="translate(-87.429806,-160.76951)"><path
       id="path1"
       style="fill:#000000"
       d="m 102.24647,160.76951 v 1.02216 c 0,0.56237 -0.076,2.09397 -0.16898,3.40341 l -0.16898,2.38073 1.78645,1.94717 c 0.98265,1.07076 1.91113,2.22009 2.06344,2.55437 0.25991,0.57039 0.42798,0.60771 2.73265,0.60771 h 2.45567 l 0.82475,-1.54771 c 0.45377,-0.85136 1.28494,-1.98359 1.84692,-2.51612 0.91035,-0.86265 1.0404,-1.14851 1.19372,-2.61948 0.0949,-0.90806 0.13426,-2.42496 0.0873,-3.37085 l -0.0853,-1.7198 -6.28385,-0.0708 z m -14.816664,10.57403 v 10.46034 10.46035 h 2.513542 2.513541 v -6.21771 c 0,-3.58303 0.102356,-6.21771 0.241846,-6.21771 0.248141,0 2.06841,2.79445 5.773808,8.86354 l 2.100127,3.43959 2.55644,0.076 2.55695,0.0755 v -7.33082 c 0,-6.6106 -0.0455,-7.38119 -0.46302,-7.84242 -0.3205,-0.35404 -0.46303,-0.95076 -0.46303,-1.93838 v -1.42678 l -1.91822,-5.2e-4 -1.91823,-0.001 v 5.2126 c 0,3.77353 -0.0798,5.13225 -0.28939,4.92269 -0.1592,-0.15921 -1.994954,-3.01054 -4.07934,-6.33656 l -3.789949,-6.04769 -2.667538,-0.0754 z m 18.520834,3.19361 v 0.81855 c 0,0.44999 0.23813,1.12086 0.52917,1.49086 0.48595,0.61783 0.52971,1.07424 0.53071,5.5976 8.1e-4,2.70889 0.12093,5.3564 0.26717,5.88284 0.41891,1.50811 1.35515,2.69615 2.63343,3.34192 1.93731,0.9787 4.77077,0.6983 4.77077,-0.47233 0,-0.39878 -0.97328,-0.78444 -1.98024,-0.78444 -0.52612,0 -1.30355,-0.17918 -1.72754,-0.39843 -1.22106,-0.63144 -1.45767,-1.89888 -1.41387,-7.57628 0.037,-4.80399 0.0559,-4.96255 0.7276,-6.10867 0.37926,-0.64716 0.68988,-1.31503 0.68988,-1.48415 0,-0.21198 -0.78044,-0.30747 -2.51354,-0.30747 z m 15.88637,1.78903 c 0.0289,2e-5 0.0518,0.003 0.0801,0.003 -0.0236,-0.003 -0.0715,-0.003 -0.0801,-0.003 z m 0.0842,0.004 c 0.003,5.6e-4 0.007,0.002 0.008,0.003 l 5.2e-4,5.2e-4 h 5.1e-4 v 5.2e-4 5.1e-4 5.2e-4 h -5.1e-4 v 5.2e-4 l -5.2e-4,5.1e-4 c -0.0173,0.0121 -0.23291,0.0399 -1.12551,0.10387 -1.6704,0.24123 -1.41104,0.0911 -3.35535,1.14567 -5.98723,3.24739 -5.37095,12.15654 1.11259,14.53451 1.35327,0.49637 4.17646,0.5032 5.82342,0.014 1.59103,-0.47249 3.58922,-2.14033 4.3496,-3.63079 0.29511,-0.57846 0.49867,-1.08813 0.45217,-1.13223 -0.0465,-0.0441 -0.85625,-0.30598 -1.79937,-0.58239 l -1.71514,-0.50281 -0.93121,0.97616 c -0.51208,0.53677 -1.37121,1.09655 -1.90945,1.24437 -2.67152,0.73374 -5.50354,-1.38949 -5.50354,-4.12636 0,-1.22655 0.81506,-2.55621 2.096,-3.41943 1.6407,-1.10567 4.41308,-0.64481 5.57485,0.92656 l 0.57878,0.7829 1.61695,-0.50333 c 0.88941,-0.27682 1.67192,-0.55829 1.73892,-0.62529 0.21059,-0.21059 -0.41779,-1.34307 -1.30845,-2.35748 -0.47113,-0.53658 -1.46277,-1.29503 -2.20348,-1.68517 -1.16751,-0.61496 -1.78892,-1.14902 -3.50005,-1.1684 z m -1.11724,0.10955 c 0.0507,-0.007 0.10325,-0.0152 0.15761,-0.0232 l -0.69402,0.0605 c 0.20147,-0.0136 0.37943,-0.026 0.53641,-0.0372 z m 17.1235,0.23307 c -0.94717,0.0365 -1.86848,0.20026 -2.6541,0.49661 -3.63133,1.36981 -5.58561,5.22087 -4.73305,9.32759 0.55006,2.64964 2.37546,4.72708 4.96507,5.65082 1.53238,0.54661 4.56897,0.47624 6.22856,-0.14469 2.82295,-1.0562 4.6993,-3.8508 4.7563,-7.08329 0.0593,-3.36401 -1.41527,-6.00834 -4.12326,-7.3949 -1.21116,-0.62015 -2.8609,-0.91296 -4.43952,-0.85214 z m 0.55397,3.68608 c 2.17096,0 3.44947,1.5787 3.45147,4.2602 0.001,1.93308 -0.63018,3.24602 -1.85932,3.86798 -0.87821,0.44438 -2.6048,0.40681 -3.49436,-0.076 -1.11439,-0.60466 -1.64204,-1.83939 -1.63504,-3.82251 0.0101,-2.70387 1.28639,-4.22971 3.53725,-4.22971 z m 5.68389,23.49469 c 0.0331,0.10804 0.12366,0.1917 0.18345,0.28835 -0.0171,-0.17185 0.001,-0.10626 -0.18345,-0.28835 z" /><path
       style="font-weight:bold;white-space:pre"
       d="m 328.83984,659.27414 q 0,0.81445 -0.25195,1.48242 -0.24609,0.66797 -0.65039,1.10156 -0.42188,0.45703 -0.95508,0.69141 -0.5332,0.23437 -1.14258,0.23437 -0.5625,0 -0.95507,-0.12305 -0.39258,-0.11718 -0.80274,-0.33398 v 2.74219 h -2.10937 v -8.99414 h 2.10937 v 0.68554 q 0.48633,-0.38671 0.99024,-0.62695 0.50976,-0.24023 1.17187,-0.24023 1.23047,0 1.91016,0.90234 0.68554,0.90234 0.68554,2.47852 z m -2.17382,0.041 q 0,-0.96094 -0.32813,-1.39453 -0.32812,-0.43359 -1.03711,-0.43359 -0.29883,0 -0.61523,0.0937 -0.31641,0.0879 -0.60352,0.25781 v 3.31055 q 0.21094,0.082 0.45117,0.10546 0.24024,0.0234 0.47461,0.0234 0.83789,0 1.24805,-0.48633 0.41016,-0.49218 0.41016,-1.47656 z m 8.46679,-1.23047 h -0.1875 q -0.13476,-0.0469 -0.43359,-0.0703 -0.29883,-0.0234 -0.49805,-0.0234 -0.45117,0 -0.79687,0.0586 -0.34571,0.0586 -0.74414,0.19922 v 4.40625 h -2.10938 v -6.58008 h 2.10938 v 0.96679 q 0.69726,-0.59765 1.21289,-0.79101 0.51562,-0.19922 0.94922,-0.19922 0.11132,0 0.25195,0.006 0.14062,0.006 0.24609,0.0176 z m 3.30469,4.57032 h -2.10938 v -6.58008 h 2.10938 z m 0.0586,-7.51758 h -2.22656 v -1.59961 h 2.22656 z m 8.54297,7.51758 h -2.12109 v -3.26368 q 0,-0.39843 -0.041,-0.79101 -0.041,-0.39844 -0.14062,-0.58594 -0.11719,-0.2168 -0.34571,-0.31641 -0.22265,-0.0996 -0.62695,-0.0996 -0.28711,0 -0.58594,0.0937 -0.29296,0.0937 -0.63867,0.29883 v 4.66407 h -2.10937 v -6.58008 h 2.10937 v 0.72656 q 0.5625,-0.43945 1.07813,-0.67383 0.52148,-0.23437 1.15429,-0.23437 1.06641,0 1.66407,0.62109 0.60351,0.62109 0.60351,1.85742 z m 6.14649,-0.0586 q -0.33985,0.0879 -0.72071,0.13477 -0.38086,0.0527 -0.93164,0.0527 -1.23047,0 -1.83398,-0.49805 -0.59766,-0.49804 -0.59766,-1.70507 v -3.07618 h -0.86719 v -1.42968 h 0.86719 v -1.88086 h 2.10938 v 1.88086 h 1.97461 v 1.42968 h -1.97461 v 2.33204 q 0,0.3457 0.006,0.60351 0.006,0.25781 0.0937,0.46289 0.082,0.20508 0.28711,0.32813 0.21093,0.11718 0.60937,0.11718 0.16406,0 0.42774,-0.0703 0.26953,-0.0703 0.375,-0.1289 h 0.17578 z m 6.97851,-2.02734 q 0,1.01953 -0.91406,1.64648 -0.91406,0.6211 -2.50195,0.6211 -0.87891,0 -1.59375,-0.16407 -0.71485,-0.16406 -1.14844,-0.36328 v -1.73437 h 0.19336 q 0.1582,0.11133 0.36328,0.24609 0.21094,0.12891 0.5918,0.28125 0.32812,0.13477 0.74414,0.23438 0.41601,0.0937 0.89062,0.0937 0.6211,0 0.91992,-0.13477 0.29883,-0.14062 0.29883,-0.41016 0,-0.24023 -0.17578,-0.3457 -0.17578,-0.11133 -0.66797,-0.21094 -0.23437,-0.0527 -0.63867,-0.11132 -0.39844,-0.0645 -0.72656,-0.15235 -0.89649,-0.23437 -1.33008,-0.72656 -0.43359,-0.49805 -0.43359,-1.23633 0,-0.94922 0.89648,-1.57617 0.90234,-0.63281 2.46094,-0.63281 0.73828,0 1.41211,0.15234 0.67968,0.14648 1.06054,0.31641 v 1.66406 h -0.18164 q -0.46875,-0.32227 -1.07226,-0.52149 -0.59766,-0.20507 -1.21289,-0.20507 -0.50977,0 -0.86133,0.14062 -0.3457,0.14063 -0.3457,0.39844 0,0.23437 0.1582,0.35742 0.1582,0.12305 0.74414,0.24609 0.32227,0.0645 0.69141,0.12891 0.375,0.0586 0.75,0.15234 0.83203,0.2168 1.23046,0.68555 0.39844,0.46289 0.39844,1.16016 z"
       id="text1"
       aria-label="prints"
       transform="matrix(1.0486103,0,0,1.1376087,-230.24896,-548.12355)" /><g
       id="g6"
       transform="matrix(0.89730631,0,0,0.89356307,12.324443,19.693813)"><circle
         style="fill:none;stroke:#000000;stroke-width:0.543834;stroke-dasharray:none;stroke-opacity:1"
         id="path4"
         cx="121.76651"
         cy="184.43309"
         r="3.6280832" /><ellipse
         style="fill:none;stroke:#000000;stroke-width:1.27414;stroke-dasharray:none;stroke-opacity:1"
         id="path4-4"
         ry="1.8629304"
         rx="1.8629316"
         cy="184.44539"
         cx="121.77496" /></g><path
       style="fill:none;stroke:#000000;stroke-width:0.499003;stroke-dasharray:none;stroke-opacity:1"
       id="path8"
       d="m 128.67005,187.39452 a 7.9871507,7.8966422 0 0 1 -8.93801,4.70288 7.9871507,7.8966422 0 0 1 -6.42054,-7.74018 7.9871507,7.8966422 0 0 1 6.41445,-7.74513 7.9871507,7.8966422 0 0 1 8.94171,4.696" /></g></svg>
