<svg xmlns="http://www.w3.org/2000/svg" viewBox="0 0 1200 630">
  <defs>
    <linearGradient id="bg" x1="0" y1="0" x2="1" y2="1">
      <stop offset="0" stop-color="#f3f4f6"/>
      <stop offset="1" stop-color="#e5e7eb"/>
    </linearGradient>
    <linearGradient id="accent" x1="0" y1="0" x2="1" y2="1">
      <stop offset="0" stop-color="#60a5fa"/>
      <stop offset="1" stop-color="#2563eb"/>
    </linearGradient>
  </defs>
  <rect width="1200" height="630" fill="url(#bg)"/>

  <!-- Marca -->
  <g transform="translate(80 80)">
    <rect x="0" y="0" width="560" height="380" rx="28" fill="#fff" stroke="#e5e7eb"/>
    <!-- Impresora -->
    <g transform="translate(40 40)">
      <rect x="0" y="0" width="360" height="260" rx="20" fill="#111827"/>
      <rect x="16" y="16" width="328" height="228" rx="12" fill="#f9fafb"/>
      <rect x="32" y="44" width="296" height="10" rx="5" fill="#9ca3af"/>
      <rect x="160" y="40" width="48" height="24" rx="6" fill="#111827"/>
      <rect x="181" y="58" width="6" height="40" rx="3" fill="#6b7280"/>
      <path d="M178 98h12l-6 10z" fill="#374151"/>
      <path d="M120 20 C 80 10, 60 30, 60 70 S 120 90, 181 60" fill="none" stroke="#60a5fa" stroke-width="3"/>
      <rect x="48" y="180" width="264" height="24" rx="6" fill="#9ca3af"/>
      <rect x="60" y="172" width="240" height="12" rx="6" fill="#e5e7eb"/>
      <g transform="translate(150 120)">
        <path d="M40 0l40 20v60l-40 20L0 80V20z" fill="url(#accent)"/>
        <path d="M40 0l40 20-40 20-40-20z" fill="#3b82f6" opacity="0.6"/>
        <path d="M80 20v60l-40 20V60z" fill="#1d4ed8" opacity="0.8"/>
        <path d="M0 20v60l40 20V60z" fill="#60a5fa" opacity="0.8"/>
      </g>
    </g>
  </g>

  <!-- Texto -->
  <g transform="translate(700 160)">
    <rect x="-20" y="-40" width="440" height="240" rx="24" fill="#111827" opacity="0.04"/>
    <text x="0" y="0" font-family="ui-sans-serif, system-ui, -apple-system, Segoe UI, Roboto, Ubuntu, Cantarell, Noto Sans, Helvetica Neue, Arial" font-size="42" font-weight="700" fill="#111827">NicoPrints</text>
    <text x="0" y="56" font-family="ui-sans-serif, system-ui, -apple-system, Segoe UI, Roboto, Ubuntu, Cantarell, Noto Sans, Helvetica Neue, Arial" font-size="28" fill="#374151">Tus ideas, y más cosas, impresas en 3D</text>
    <rect x="0" y="88" width="300" height="10" rx="5" fill="#9ca3af"/>
    <rect x="0" y="108" width="260" height="10" rx="5" fill="#d1d5db"/>
    <rect x="0" y="142" width="180" height="36" rx="10" fill="#111827"/>
  </g>
</svg>

