<?xml version="1.0" encoding="UTF-8" standalone="no"?>
<!-- Created with Inkscape (http://www.inkscape.org/) -->

<svg
   version="1.1"
   id="svg1"
   width="321.26666"
   height="124.72"
   viewBox="0 0 321.26666 124.72"
   sodipodi:docname="parkside-lidl.eps"
   xmlns:inkscape="http://www.inkscape.org/namespaces/inkscape"
   xmlns:sodipodi="http://sodipodi.sourceforge.net/DTD/sodipodi-0.dtd"
   xmlns="http://www.w3.org/2000/svg"
   xmlns:svg="http://www.w3.org/2000/svg">
  <defs
     id="defs1" />
  <sodipodi:namedview
     id="namedview1"
     pagecolor="#ffffff"
     bordercolor="#000000"
     borderopacity="0.25"
     inkscape:showpageshadow="2"
     inkscape:pageopacity="0.0"
     inkscape:pagecheckerboard="0"
     inkscape:deskcolor="#d1d1d1">
    <inkscape:page
       x="0"
       y="0"
       inkscape:label="1"
       id="page1"
       width="321.26666"
       height="124.72"
       margin="0"
       bleed="0" />
  </sodipodi:namedview>
  <g
     id="g1"
     inkscape:groupmode="layer"
     inkscape:label="1">
    <g
       id="group-R5">
      <path
         id="path2"
         d="M 659.922,215.469 846.711,719.961 H 2206.31 L 2019.52,215.469 H 659.922"
         style="fill:#1f4b32;fill-opacity:1;fill-rule:evenodd;stroke:none"
         transform="matrix(0.13333333,0,0,-0.13333333,0,124.72)" />
      <path
         id="path3"
         d="M 661.129,215.469 H 203.141 L 389.93,719.961 H 847.922 L 661.129,215.469"
         style="fill:#153c29;fill-opacity:1;fill-rule:evenodd;stroke:none"
         transform="matrix(0.13333333,0,0,-0.13333333,0,124.72)" />
      <path
         id="path4"
         d="m 653.25,386.078 h -41.672 l 59.301,163.274 h 42.742 L 653.25,386.078"
         style="fill:#cd2828;fill-opacity:1;fill-rule:nonzero;stroke:none"
         transform="matrix(0.13333333,0,0,-0.13333333,0,124.72)" />
      <path
         id="path5"
         d="m 582.719,386.078 h -42.207 l 59.297,163.274 h 42.75 l -59.84,-163.274"
         style="fill:#cd2828;fill-opacity:1;fill-rule:nonzero;stroke:none"
         transform="matrix(0.13333333,0,0,-0.13333333,0,124.72)" />
      <path
         id="path6"
         d="m 724.301,386.078 h -41.68 l 59.309,163.274 h 42.742 L 724.301,386.078"
         style="fill:#cd2828;fill-opacity:1;fill-rule:nonzero;stroke:none"
         transform="matrix(0.13333333,0,0,-0.13333333,0,124.72)" />
      <path
         id="path7"
         d="m 939.09,444.43 h -24.578 v -58.352 h -40.071 v 163.274 h 64.649 c 36.332,0 55.558,-25.692 55.558,-52.461 0,-26.762 -19.226,-52.461 -55.558,-52.461 z m -1.61,69.05 h -22.441 v -33.179 h 22.441 c 11.219,0 17.629,8.027 17.629,16.59 -0.531,8.57 -6.937,16.589 -17.629,16.589"
         style="fill:#ffffff;fill-opacity:1;fill-rule:nonzero;stroke:none"
         transform="matrix(0.13333333,0,0,-0.13333333,0,124.72)" />
      <path
         id="path8"
         d="m 1087.08,386.078 -7.49,24.094 h -50.22 l -8.01,-24.094 h -41.68 l 59.31,163.274 h 30.99 l 59.3,-163.274 z m -31.53,101.711 -14.43,-43.359 h 28.33 l -13.9,43.359"
         style="fill:#ffffff;fill-opacity:1;fill-rule:nonzero;stroke:none"
         transform="matrix(0.13333333,0,0,-0.13333333,0,124.72)" />
      <path
         id="path9"
         d="m 1227.59,386.078 -28.85,61.031 h -13.36 v -60.488 h -40.07 v 162.731 h 64.65 c 36.33,0 55.56,-25.692 55.56,-52.461 0,-22.481 -13.89,-36.403 -26.71,-42.821 l 35.26,-67.992 z m -19.23,127.402 h -22.44 v -33.179 h 22.44 c 11.22,0 17.63,8.027 17.63,16.59 -0.53,8.57 -6.95,16.589 -17.63,16.589"
         style="fill:#ffffff;fill-opacity:1;fill-rule:nonzero;stroke:none"
         transform="matrix(0.13333333,0,0,-0.13333333,0,124.72)" />
      <path
         id="path10"
         d="m 1385.21,386.078 -37.4,66.922 -13.89,-16.059 v -50.863 h -39.54 v 163.274 h 39.54 v -57.813 l 47.01,57.813 h 49.16 l -55.57,-65.84 57.17,-97.434 h -46.48"
         style="fill:#ffffff;fill-opacity:1;fill-rule:nonzero;stroke:none"
         transform="matrix(0.13333333,0,0,-0.13333333,0,124.72)" />
      <path
         id="path11"
         d="m 1497.94,385.012 c -25.11,0 -45.41,4.816 -61.97,21.418 l 25.64,25.691 c 8.55,-8.57 23.51,-11.242 36.33,-11.242 16.03,0 23.51,5.351 23.51,14.449 0,3.75 -1.07,6.961 -3.21,9.641 -2.13,2.14 -5.34,3.742 -10.68,4.281 l -19.77,2.68 c -14.43,2.14 -25.64,6.949 -32.59,14.449 -7.48,8.031 -11.22,18.73 -11.22,32.652 0,29.981 22.44,51.391 59.3,51.391 23.51,0 41.15,-5.352 55.04,-19.274 l -25.12,-25.16 c -10.14,10.172 -24.04,9.641 -30.98,9.641 -13.9,0 -19.77,-8.027 -19.77,-14.988 0,-2.141 0.53,-4.821 3.2,-7.5 2.14,-2.141 5.35,-4.282 11.22,-4.813 l 19.77,-2.68 c 14.43,-2.136 25.11,-6.418 32.06,-13.378 8.55,-8.571 12.29,-20.879 12.29,-35.872 0,-33.187 -28.32,-51.386 -63.05,-51.386"
         style="fill:#ffffff;fill-opacity:1;fill-rule:nonzero;stroke:none"
         transform="matrix(0.13333333,0,0,-0.13333333,0,124.72)" />
      <path
         id="path12"
         d="m 1587.18,386.078 v 163.274 h 40.07 V 386.078 h -40.07"
         style="fill:#ffffff;fill-opacity:1;fill-rule:nonzero;stroke:none"
         transform="matrix(0.13333333,0,0,-0.13333333,0,124.72)" />
      <path
         id="path13"
         d="m 1766.16,402.141 c -11.22,-11.243 -27.25,-16.063 -43.81,-16.063 h -60.37 v 163.274 h 60.37 c 17.1,0 32.59,-4.821 43.81,-16.063 19.24,-19.269 17.1,-40.148 17.1,-65.309 0,-25.152 2.14,-46.57 -17.1,-65.839 z m -27.25,102.238 c -3.74,5.359 -9.08,9.101 -19.23,9.101 h -17.63 v -91.531 h 17.63 c 10.15,0 15.49,3.75 19.23,9.102 3.21,4.82 4.28,9.097 4.28,36.929 0,27.301 -1.07,32.122 -4.28,36.399"
         style="fill:#ffffff;fill-opacity:1;fill-rule:nonzero;stroke:none"
         transform="matrix(0.13333333,0,0,-0.13333333,0,124.72)" />
      <path
         id="path14"
         d="m 1811.05,386.078 v 163.274 h 110.59 V 513.48 h -70.53 v -26.761 h 60.38 v -35.867 h -60.38 v -28.903 h 70.53 v -35.871 h -110.59"
         style="fill:#ffffff;fill-opacity:1;fill-rule:nonzero;stroke:none"
         transform="matrix(0.13333333,0,0,-0.13333333,0,124.72)" />
      <path
         id="path15"
         d="m 1964.91,550.422 c 10.34,0 18.73,-8.391 18.73,-18.742 0,-10.34 -8.39,-18.731 -18.73,-18.731 -10.34,0 -18.74,8.391 -18.74,18.731 0,10.351 8.4,18.742 18.74,18.742 z m 0,-1.742 c 9.38,0 16.99,-7.621 16.99,-17 0,-9.371 -7.61,-16.989 -16.99,-16.989 -9.38,0 -17,7.618 -17,16.989 0,9.379 7.62,17 17,17"
         style="fill:#ffffff;fill-opacity:1;fill-rule:evenodd;stroke:none"
         transform="matrix(0.13333333,0,0,-0.13333333,0,124.72)" />
      <path
         id="path16"
         d="m 1973.91,521.02 h -4.07 l -3.31,8.769 h -5.41 v -8.769 h -3.84 v 21.332 h 9.25 c 2.57,0 4.46,-0.582 5.67,-1.743 1.21,-1.16 1.82,-2.66 1.82,-4.507 0,-2.743 -1.28,-4.633 -3.85,-5.661 z m -12.79,11.839 h 4.78 c 1.39,0 2.42,0.301 3.1,0.879 0.68,0.582 1.02,1.391 1.02,2.41 0,0.942 -0.34,1.692 -1.01,2.274 -0.66,0.578 -1.59,0.867 -2.79,0.867 h -5.1 v -6.43"
         style="fill:#ffffff;fill-opacity:1;fill-rule:nonzero;stroke:none"
         transform="matrix(0.13333333,0,0,-0.13333333,0,124.72)" />
    </g>
  </g>
</svg>
